<?xml version="1.0" standalone="no"?>
<!DOCTYPE svg PUBLIC "-//W3C//DTD SVG 20010904//EN" "http://www.w3.org/TR/2001/REC-SVG-20010904/DTD/svg10.dtd">
<svg xmlns="http://www.w3.org/2000/svg" version="1.0" width="225.000000pt" height="225.000000pt" viewBox="0 0 225.000000 225.000000" preserveAspectRatio="xMidYMid meet">
<metadata>
Created by potrace 1.16, written by Peter Selinger 2001-2019
<meta name="Producer" content="Online-Convert"/></metadata>
<g transform="translate(0.000000,225.000000) scale(0.100000,-0.100000)" fill="#000000" stroke="none">
<path d="M1082 1797 c-42 -43 -42 -43 -42 -119 l0 -77 -36 15 c-20 9 -46 13 -58 10 -12 -3 -52 -36 -91 -73 l-70 -68 106 -3 c142 -4 143 -5 147 -158 l4 -114 -110 0 c-95 0 -113 3 -136 21 -25 20 -26 24 -26 127 l0 106 -70 -69 c-39 -39 -73 -79 -76 -91 -3 -12 1 -38 10 -58 l15 -36 -77 0 -78 0 -42 -43 -42 -43 43 -42 43 -42 77 0 77 0 -17 -34 c-9 -19 -13 -44 -10 -57 4 -13 38 -55 77 -94 l70 -69 0 106 c0 103 1 107 26 127 23 18 41 21 135 21 l109 0 0 -77 c-1 -101 -13 -163 -37 -181 -13 -10 -45 -12 -120 -10 l-102 3 22 -25 c51 -58 133 -130 150 -130 10 0 33 7 52 14 l35 15 0 -77 0 -78 43 -42 43 -42 36 37 c35 36 37 41 39 113 1 41 4 78 6 82 2 5 17 1 33 -7 49 -26 67 -19 148 60 l77 74 -107 1 c-147 0 -148 1 -148 156 l0 116 114 -4 c154 -4 156 -6 156 -147 l0 -105 70 69 c39 39 73 79 76 91 3 12 -1 38 -10 58 l-15 36 77 0 78 0 42 43 42 43 -43 42 c-43 42 -43 42 -119 42 l-77 0 15 36 c9 20 13 46 10 58 -3 12 -37 52 -76 91 l-70 69 0 -106 c0 -103 -1 -107 -26 -127 -23 -18 -41 -21 -135 -21 l-109 0 0 109 c0 94 3 112 21 135 20 25 24 26 127 26 l107 1 -77 74 c-82 79 -99 86 -148 60 l-30 -16 0 79 0 78 -43 42 -43 42 -42 -43z"/>
</g>
</svg>
